<svg width="375" height="329" viewBox="0 0 375 329" fill="none" xmlns="http://www.w3.org/2000/svg">
<path d="M-32.3215 284.728C-63.8691 282.751 -70.5718 270.176 -69.9797 264.135V188.494L470.735 188.494V264.135C471.327 270.176 464.624 282.751 433.077 284.728C393.642 287.199 394.708 295.848 388.669 302.85C382.629 309.852 373.037 316.853 339.287 311.293C305.536 305.733 272.497 303.88 247.273 317.059C227.094 327.603 207.56 328.797 200.378 328.797C193.195 328.797 173.662 327.603 153.483 317.059C128.259 303.88 95.2189 305.733 61.4686 311.293C27.7184 316.853 18.1262 309.852 12.0867 302.85C6.04715 295.848 7.11302 287.199 -32.3215 284.728Z" fill="black"/>
<path d="M494.379 148.486C532.415 159.728 533.528 181.969 529.331 191.684L477.052 188.519L-77.3038 188.519L-142 54.3475C-139.273 44.3314 -123.743 25.4955 -83.4412 30.2795C-33.0644 36.2596 -29.4302 21.8631 -17.9185 11.9619C-6.40682 2.06069 9.51572 -6.9382 48.2318 10.7149C86.9478 28.3681 126.906 39.7868 165.778 24.6684C196.875 12.5736 221.812 15.5843 230.729 17.4085C239.646 19.2328 263.214 26.1448 282.224 48.4902C305.987 76.4219 348.07 81.7867 393.16 81.2781C438.25 80.7694 446.146 94.641 449.631 107.61C453.116 120.579 446.836 134.434 494.379 148.486Z" fill="black"/>
<rect y="93" width="375" height="107" fill="black"/>
</svg>
