<svg width="1440" height="435" viewBox="0 0 1440 435" fill="none" xmlns="http://www.w3.org/2000/svg">
<path d="M1369.89 342.044C1463.48 368.056 1466.22 419.52 1455.89 442L1327.25 434.677L-36.8071 434.678L-196 124.213C-189.289 101.037 -151.076 57.452 -51.9089 68.5219C72.0496 82.3593 80.992 49.0469 109.318 26.1362C137.644 3.22548 176.823 -17.5973 272.089 23.2508C367.354 64.0989 465.677 90.521 561.325 55.538C637.844 27.5516 699.204 34.5181 721.146 38.7393C743.088 42.9604 801.08 58.9545 847.856 110.66C906.327 175.292 1009.88 187.706 1120.83 186.529C1231.78 185.352 1251.21 217.45 1259.78 247.459C1268.36 277.469 1252.9 309.529 1369.89 342.044Z" fill="black"/>
</svg>
