<svg width="65" height="65" viewBox="0 0 65 65" fill="none" xmlns="http://www.w3.org/2000/svg">
<rect opacity="0.1" width="65" height="65" rx="20" fill="#F76743"/>
<path d="M32 16C27.651 16 27.109 16.021 25.407 16.093C23.698 16.177 22.542 16.442 21.522 16.838C20.4545 17.241 19.4877 17.872 18.689 18.687C17.8718 19.4838 17.2404 20.4511 16.84 21.52C16.444 22.54 16.179 23.696 16.095 25.405C16.018 27.108 16.002 27.649 16.002 31.998C16.002 36.347 16.023 36.889 16.095 38.591C16.179 40.295 16.444 41.456 16.84 42.476C17.243 43.5435 17.874 44.5103 18.689 45.309C19.4858 46.1263 20.4531 46.7576 21.522 47.158C22.542 47.549 23.703 47.819 25.407 47.903C27.11 47.98 27.651 47.996 32 47.996C36.349 47.996 36.891 47.975 38.593 47.903C40.297 47.819 41.458 47.548 42.478 47.158C43.5456 46.755 44.5124 46.124 45.311 45.309C46.1293 44.5131 46.7608 43.5455 47.16 42.476C47.551 41.456 47.821 40.295 47.905 38.591C47.982 36.888 47.998 36.347 47.998 31.998C47.998 27.649 47.977 27.107 47.905 25.405C47.821 23.701 47.55 22.534 47.16 21.52C46.757 20.4525 46.126 19.4857 45.311 18.687C44.5151 17.8687 43.5475 17.2372 42.478 16.838C41.458 16.442 40.297 16.177 38.593 16.093C36.89 16.016 36.349 16 32 16ZM32 18.88C36.271 18.88 36.781 18.901 38.469 18.973C40.026 19.046 40.874 19.306 41.437 19.526C42.133 19.7829 42.763 20.1919 43.281 20.723C43.8113 21.2388 44.2187 21.8673 44.473 22.562C44.693 23.125 44.953 23.973 45.026 25.53C45.098 27.218 45.119 27.729 45.119 31.999C45.119 36.269 45.098 36.78 45.02 38.468C44.936 40.025 44.676 40.873 44.457 41.436C44.154 42.187 43.816 42.712 43.258 43.28C42.7383 43.8078 42.1087 44.2148 41.414 44.472C40.858 44.692 39.998 44.952 38.435 45.025C36.738 45.097 36.238 45.118 31.956 45.118C27.674 45.118 27.175 45.097 25.476 45.019C23.919 44.935 23.06 44.675 22.497 44.456C21.737 44.153 21.216 43.815 20.658 43.257C20.095 42.694 19.737 42.158 19.461 41.413C19.237 40.857 18.981 39.997 18.898 38.434C18.841 36.757 18.814 36.237 18.814 31.975C18.814 27.715 18.841 27.194 18.898 25.496C18.981 23.933 19.237 23.075 19.461 22.517C19.737 21.756 20.096 21.236 20.658 20.673C21.215 20.116 21.737 19.756 22.497 19.474C23.06 19.255 23.898 18.995 25.461 18.917C27.158 18.856 27.658 18.834 31.934 18.834L32 18.88ZM32 23.787C30.9214 23.7866 29.8532 23.9988 28.8566 24.4114C27.8599 24.824 26.9544 25.4289 26.1917 26.1917C25.4289 26.9544 24.824 27.8599 24.4114 28.8566C23.9988 29.8532 23.7866 30.9213 23.787 32C23.7866 33.0787 23.9988 34.1468 24.4114 35.1434C24.824 36.1401 25.4289 37.0456 26.1917 37.8083C26.9544 38.5711 27.8599 39.176 28.8566 39.5886C29.8532 40.0012 30.9214 40.2134 32 40.213C33.0787 40.2134 34.1468 40.0012 35.1435 39.5886C36.1401 39.176 37.0456 38.5711 37.8084 37.8083C38.5711 37.0456 39.176 36.1401 39.5886 35.1434C40.0012 34.1468 40.2134 33.0787 40.213 32C40.2134 30.9213 40.0012 29.8532 39.5886 28.8566C39.176 27.8599 38.5711 26.9544 37.8084 26.1917C37.0456 25.4289 36.1401 24.824 35.1435 24.4114C34.1468 23.9988 33.0787 23.7866 32 23.787V23.787ZM32 37.333C29.052 37.333 26.667 34.948 26.667 32C26.667 29.052 29.052 26.667 32 26.667C34.948 26.667 37.333 29.052 37.333 32C37.333 34.948 34.948 37.333 32 37.333ZM42.464 23.459C42.4635 23.9687 42.2606 24.4573 41.9001 24.8175C41.5395 25.1777 41.0507 25.38 40.541 25.38C40.289 25.38 40.0395 25.3304 39.8066 25.2339C39.5738 25.1375 39.3623 24.9961 39.1841 24.8179C39.0059 24.6397 38.8645 24.4282 38.7681 24.1954C38.6717 23.9625 38.622 23.713 38.622 23.461C38.622 23.209 38.6717 22.9595 38.7681 22.7266C38.8645 22.4938 39.0059 22.2823 39.1841 22.1041C39.3623 21.9259 39.5738 21.7845 39.8066 21.6881C40.0395 21.5916 40.289 21.542 40.541 21.542C41.598 21.542 42.464 22.402 42.464 23.459V23.459Z" fill="#FE1A59"/>
</svg>
